<?xml version="1.0" standalone="no"?>
<!DOCTYPE svg PUBLIC "-//W3C//DTD SVG 20010904//EN"
 "http://www.w3.org/TR/2001/REC-SVG-20010904/DTD/svg10.dtd">
<svg version="1.0" xmlns="http://www.w3.org/2000/svg"
 width="256.000000pt" height="256.000000pt" viewBox="0 0 256.000000 256.000000"
 preserveAspectRatio="xMidYMid meet">
<metadata>
Created by potrace 1.14, written by Peter Selinger 2001-2017
</metadata>
<g transform="translate(0.000000,256.000000) scale(0.100000,-0.100000)"
fill="#000000" stroke="none">
<path d="M815 2360 c3 -5 8 -10 11 -10 2 0 4 5 4 10 0 6 -5 10 -11 10 -5 0 -7
-4 -4 -10z"/>
<path d="M1295 2360 c3 -5 8 -10 11 -10 2 0 4 5 4 10 0 6 -5 10 -11 10 -5 0
-7 -4 -4 -10z"/>
<path d="M1775 2360 c3 -5 8 -10 11 -10 2 0 4 5 4 10 0 6 -5 10 -11 10 -5 0
-7 -4 -4 -10z"/>
<path d="M470 2340 c0 -5 5 -10 11 -10 5 0 7 5 4 10 -3 6 -8 10 -11 10 -2 0
-4 -4 -4 -10z"/>
<path d="M970 2340 c0 -5 5 -10 11 -10 5 0 7 5 4 10 -3 6 -8 10 -11 10 -2 0
-4 -4 -4 -10z"/>
<path d="M1055 2340 c-3 -5 -1 -10 4 -10 6 0 11 5 11 10 0 6 -2 10 -4 10 -3 0
-8 -4 -11 -10z"/>
<path d="M1215 2340 c-3 -5 -1 -10 4 -10 6 0 11 5 11 10 0 6 -2 10 -4 10 -3 0
-8 -4 -11 -10z"/>
<path d="M1573 2335 c0 -8 4 -12 9 -9 5 3 6 10 3 15 -9 13 -12 11 -12 -6z"/>
<path d="M753 2327 c0 -16 34 -20 43 -5 4 7 2 8 -5 4 -6 -4 -18 -3 -25 3 -9 8
-13 7 -13 -2z"/>
<path d="M1473 2326 c0 -9 9 -13 23 -11 13 1 25 -4 29 -13 3 -10 0 -12 -10 -9
-8 4 -17 2 -20 -2 -3 -5 -14 -7 -25 -4 -11 3 -18 9 -15 13 10 17 -26 3 -38
-15 -10 -12 -19 -15 -28 -9 -22 13 -43 14 -51 1 -6 -9 -8 -8 -8 2 0 7 -6 11
-15 8 -8 -4 -17 -2 -20 3 -10 15 -43 7 -38 -10 2 -8 -3 -4 -11 10 -10 16 -15
20 -16 10 0 -9 -9 -16 -19 -16 -11 0 -18 3 -15 7 2 4 -4 6 -13 4 -10 -2 -18
-4 -18 -5 0 -1 -12 -3 -27 -4 -15 -2 -25 0 -23 4 2 4 -2 7 -9 7 -8 0 -12 -7
-9 -16 2 -9 -3 -5 -11 9 -10 16 -15 20 -16 10 0 -9 -9 -16 -19 -16 -11 0 -18
3 -16 7 3 3 -8 6 -23 5 -15 -1 -30 -8 -34 -16 -5 -11 -7 -9 -7 8 -1 28 -14 28
-33 0 -10 -15 -19 -19 -29 -12 -22 13 -43 14 -51 1 -6 -9 -8 -8 -8 2 0 7 -6
11 -14 8 -8 -3 -17 -3 -21 1 -9 9 -55 10 -50 1 3 -4 -4 -5 -15 -2 -11 3 -18 9
-15 13 11 17 -26 3 -39 -16 -12 -15 -17 -16 -27 -7 -8 8 -18 9 -30 3 -12 -7
-20 -6 -24 0 -4 6 -11 8 -16 5 -11 -7 -12 7 -1 21 4 5 -3 -2 -15 -16 -18 -20
-25 -22 -35 -12 -11 11 -10 12 4 7 10 -4 18 -3 18 2 0 12 -46 11 -57 -1 -5 -5
-2 -6 6 -1 10 5 12 4 7 -4 -4 -6 -12 -9 -17 -5 -5 3 -7 10 -4 15 4 5 2 9 -4 9
-5 0 -12 -6 -15 -12 -3 -10 -8 -9 -18 3 -11 13 -16 14 -25 4 -7 -7 -9 -16 -6
-19 4 -3 1 -6 -5 -6 -7 0 -12 6 -12 13 0 8 -4 7 -10 -3 -5 -8 -10 -11 -10 -6
0 6 -6 2 -13 -8 -7 -9 -22 -18 -35 -19 -17 -1 -21 -6 -17 -22 3 -11 2 -14 -1
-7 -8 17 -25 15 -18 -3 5 -11 2 -13 -10 -9 -12 4 -15 2 -10 -9 3 -8 0 -18 -7
-23 -8 -5 -10 -3 -4 6 5 8 4 11 -3 6 -6 -4 -9 -13 -5 -21 3 -8 0 -15 -7 -15
-6 0 -8 -5 -5 -11 4 -5 -1 -20 -12 -31 -10 -12 -13 -19 -7 -15 7 4 10 -13 10
-51 -1 -60 -15 -83 -48 -77 -10 2 -16 0 -13 -5 3 -5 14 -7 25 -5 25 5 32 -7
34 -56 2 -32 0 -39 -13 -34 -10 3 -9 -1 4 -11 19 -16 19 -16 -7 -10 -17 4 -28
2 -28 -4 0 -5 3 -9 7 -9 5 1 15 1 24 0 22 -1 20 -49 -3 -56 -23 -8 -29 -31 -8
-31 10 0 16 6 13 13 -3 7 -1 13 4 13 17 0 23 -13 12 -26 -6 -8 -9 -20 -6 -28
3 -8 -1 -17 -9 -20 -18 -7 -18 -26 0 -26 20 0 15 -49 -6 -56 -10 -3 -18 -10
-18 -17 0 -8 3 -8 12 1 14 14 28 16 28 4 0 -5 -10 -14 -23 -20 -20 -10 -20
-11 -2 -9 17 2 20 -4 20 -35 0 -31 -3 -38 -20 -39 -17 -1 -16 -2 5 -9 14 -4
19 -8 12 -9 -7 -1 -10 -6 -6 -12 4 -7 7 -56 8 -111 1 -84 -1 -98 -14 -93 -11
4 -10 1 2 -8 16 -13 16 -15 -7 -27 -14 -7 -23 -15 -20 -18 2 -3 11 1 20 8 8 7
15 9 15 4 7 -113 7 -112 -14 -123 -20 -10 -20 -11 -1 -8 17 2 20 -4 20 -35 0
-31 -3 -38 -20 -39 -17 -1 -16 -2 5 -9 14 -4 19 -8 12 -9 -8 -1 -10 -6 -6 -13
11 -17 12 -88 2 -88 -4 0 -8 5 -8 12 0 6 -3 8 -7 4 -5 -4 1 -14 12 -23 19 -14
18 -14 -13 -9 -19 2 -31 2 -27 -2 7 -7 12 -8 39 -11 20 -2 15 -50 -6 -56 -23
-8 -29 -31 -8 -31 10 0 16 6 13 13 -3 7 -1 13 4 13 17 0 23 -13 12 -26 -6 -8
-9 -20 -6 -28 3 -8 -1 -17 -9 -20 -18 -7 -18 -26 0 -26 21 0 15 -49 -7 -56
-14 -4 -15 -9 -7 -19 8 -9 8 -15 0 -18 -6 -3 -5 -4 2 -3 7 2 12 10 10 20 -2 9
1 16 6 16 15 0 8 -104 -8 -117 -8 -7 -10 -13 -5 -13 6 0 3 -5 -5 -11 -13 -9
-13 -10 0 -6 8 2 14 10 12 16 -1 6 2 11 8 11 10 0 6 -52 -6 -71 -5 -8 -3 -9 6
-4 10 6 12 4 7 -8 -3 -10 -2 -17 3 -17 6 0 10 -5 10 -11 0 -5 -4 -7 -10 -4
-17 11 -11 -3 11 -24 13 -12 19 -26 15 -36 -3 -9 -2 -13 4 -10 6 3 10 1 10 -5
0 -6 4 -8 10 -5 6 4 7 -1 3 -11 -4 -10 -2 -15 3 -11 6 3 16 1 24 -4 13 -8 13
-10 0 -19 -11 -8 -9 -9 11 -5 21 5 31 1 47 -19 12 -16 22 -22 24 -14 2 6 14
12 27 13 15 1 20 -2 16 -13 -4 -12 -3 -12 9 -3 7 6 20 9 29 5 8 -3 18 -1 22 5
4 7 10 7 19 -2 8 -6 12 -15 10 -18 -2 -4 4 -13 13 -20 14 -12 16 -12 8 1 -12
20 -14 50 -3 44 5 -4 14 -16 19 -28 9 -20 9 -20 5 2 -3 15 0 22 7 19 7 -3 11
-10 9 -16 -1 -7 2 -9 8 -6 6 4 9 13 6 21 -3 8 0 11 9 7 11 -4 12 -10 5 -23 -7
-13 -7 -21 0 -25 6 -4 10 -3 9 2 -4 24 2 35 17 29 13 -5 14 -3 6 7 -8 10 -6
13 8 13 10 0 17 -3 15 -7 -4 -5 62 -4 75 1 16 7 37 3 54 -10 15 -11 17 -12 11
-1 -5 9 -3 12 6 9 8 -3 13 -12 13 -21 -1 -9 4 -13 12 -10 11 4 11 10 2 26 -10
19 -9 20 3 10 9 -7 20 -8 29 -3 8 5 21 5 31 0 9 -5 19 -7 22 -3 4 3 14 0 24
-8 15 -12 16 -12 11 2 -4 10 -1 16 8 16 8 0 14 -5 14 -10 0 -5 7 -6 16 -3 9 4
24 1 32 -6 13 -11 15 -10 10 3 -4 10 -1 16 8 16 8 0 13 -6 10 -13 -3 -7 3 -18
12 -26 15 -11 16 -11 4 3 -10 14 -10 18 4 23 9 3 24 1 32 -6 13 -11 15 -10 10
3 -4 10 -1 16 8 16 8 0 14 -5 14 -10 0 -5 7 -6 16 -3 9 4 24 1 32 -6 13 -11
15 -10 10 3 -4 10 -1 16 8 16 8 0 13 -6 10 -13 -3 -7 3 -18 12 -25 14 -11 15
-11 5 1 -10 11 -9 16 5 26 14 10 20 10 36 -4 12 -10 16 -12 11 -3 -5 9 -3 12
6 9 8 -3 13 -12 13 -21 -1 -9 4 -13 12 -10 11 4 11 10 2 26 -10 19 -9 20 3 10
9 -7 20 -8 29 -3 18 11 53 -7 44 -22 -4 -7 -3 -8 5 -4 6 4 8 12 5 18 -5 7 1 9
18 5 14 -4 28 -4 32 0 14 15 48 9 63 -11 12 -16 14 -17 10 -4 -7 21 3 23 22 5
11 -10 13 -9 8 5 -4 12 -2 15 9 11 17 -6 18 -15 2 -31 -7 -7 -8 -12 -4 -12 5
0 2 -8 -5 -17 -13 -16 -12 -17 3 -4 10 7 16 17 13 21 -3 4 2 13 10 20 8 7 13
16 10 20 -3 5 3 7 12 5 10 -2 18 -4 18 -5 0 -6 66 -6 70 0 7 11 42 5 61 -11
14 -11 16 -11 10 0 -6 9 -5 12 5 9 8 -3 13 -12 13 -21 -1 -9 4 -13 12 -10 11
4 11 10 3 26 -9 18 -9 20 1 10 9 -9 19 -9 32 -2 13 7 23 7 32 0 7 -6 16 -8 19
-4 4 3 14 0 24 -8 15 -12 16 -12 11 2 -4 9 -1 16 8 16 7 0 10 -5 7 -10 -4 -6
3 -8 17 -4 13 3 31 1 39 -6 12 -10 14 -9 9 4 -4 10 -1 16 8 16 8 0 13 -6 10
-13 -3 -8 0 -16 6 -20 7 -4 8 -3 4 4 -7 11 -3 14 27 16 6 1 18 8 25 16 10 13
11 13 6 -2 -3 -10 -1 -18 5 -18 6 0 11 7 11 15 0 9 6 12 17 8 12 -5 14 -3 8 7
-6 10 -3 12 13 8 13 -4 27 1 38 13 9 10 20 16 25 14 4 -3 10 -1 13 4 10 16
-22 6 -44 -14 -11 -10 -20 -14 -20 -9 0 5 16 20 36 33 22 15 33 30 29 39 -4
10 0 12 11 8 13 -5 15 -1 12 19 -4 18 -2 23 6 16 8 -7 12 -4 12 9 0 10 -3 17
-7 14 -9 -5 -6 17 5 35 5 8 3 16 -5 22 -11 7 -11 9 -1 9 10 0 10 5 1 23 -11
19 -10 21 3 9 13 -11 16 -10 14 5 0 10 4 18 11 18 6 0 14 3 18 7 9 8 -16 5
-32 -5 -6 -4 -15 -2 -19 4 -4 8 -3 9 4 5 15 -9 16 6 1 21 -8 8 -7 13 2 18 7 5
10 4 6 -2 -4 -6 0 -14 8 -17 12 -4 13 -2 6 13 -6 10 -7 21 -3 25 3 4 -2 4 -13
0 -19 -7 -18 -5 2 17 15 17 19 29 13 39 -5 8 -6 18 -4 22 3 4 -1 5 -8 3 -9 -4
-14 2 -14 14 0 14 4 17 12 10 8 -7 10 -2 6 16 -2 15 -9 22 -16 18 -6 -4 -5 1
3 10 11 14 11 17 0 17 -10 1 -9 5 4 14 10 8 20 24 22 36 2 13 1 19 -3 16 -4
-4 -7 -13 -7 -19 0 -5 -5 -12 -10 -14 -6 -2 -11 5 -11 16 0 11 5 17 10 14 5
-4 7 1 3 11 -5 11 -3 15 5 10 6 -4 8 -3 4 4 -3 6 -2 13 4 17 7 4 7 12 0 24 -5
10 -6 21 -2 25 3 4 -2 4 -13 0 -19 -7 -18 -5 2 17 15 17 19 29 13 39 -5 8 -6
18 -4 22 3 4 -1 5 -8 3 -9 -4 -14 2 -14 14 0 14 4 17 12 10 8 -7 10 -2 6 16
-2 15 -9 22 -16 18 -6 -4 -5 1 3 10 11 14 11 17 0 17 -10 1 -9 5 4 14 10 8 20
24 22 36 2 13 1 19 -3 16 -4 -4 -7 -13 -7 -18 0 -6 -5 -13 -10 -15 -6 -2 -11
5 -11 16 0 11 5 17 10 14 5 -4 7 1 3 11 -5 11 -3 15 5 10 6 -4 8 -3 4 4 -3 6
-2 13 4 17 7 4 7 12 0 24 -5 10 -6 21 -2 25 3 4 -2 4 -13 0 -19 -7 -18 -5 2
17 15 17 19 29 13 39 -5 8 -6 18 -4 22 3 4 -1 5 -8 3 -9 -4 -14 2 -14 14 0 14
4 17 12 10 8 -7 10 -2 6 16 -2 15 -9 22 -16 18 -6 -4 -5 1 3 10 11 14 11 17 0
17 -10 1 -9 5 4 14 10 8 20 24 22 36 2 13 1 19 -3 16 -4 -4 -7 -13 -7 -18 0
-6 -5 -13 -10 -15 -6 -2 -11 5 -11 16 0 11 5 17 10 14 5 -4 7 1 3 11 -5 11 -3
15 5 10 6 -4 8 -3 4 4 -3 6 -2 13 4 17 7 4 7 12 0 24 -5 10 -6 21 -2 25 3 4
-2 4 -13 0 -19 -7 -18 -5 2 17 15 17 19 29 13 39 -5 8 -6 18 -4 22 3 4 -1 5
-8 3 -9 -4 -14 2 -14 14 0 14 4 17 12 10 8 -7 10 -2 6 16 -2 15 -9 22 -16 18
-6 -4 -5 1 3 10 11 14 11 17 0 17 -10 1 -9 5 4 14 10 8 20 24 22 36 2 13 1 19
-3 16 -4 -4 -7 -13 -7 -18 0 -6 -5 -13 -10 -15 -6 -2 -11 5 -11 16 0 11 4 17
8 15 4 -3 8 -1 8 5 0 5 -4 12 -8 15 -11 6 -9 43 3 53 4 5 5 2 1 -4 -4 -7 -3
-13 3 -13 5 0 8 -9 6 -19 -3 -19 16 -23 32 -7 4 4 2 6 -6 4 -12 -3 -20 14 -23
49 -1 6 -8 9 -16 6 -12 -5 -12 -2 -3 15 14 27 14 35 -1 26 -7 -4 -8 -3 -4 5 6
9 11 9 22 0 20 -16 18 -4 -3 17 -19 19 -27 60 -9 44 14 -11 15 55 1 67 -4 5
-5 1 0 -7 5 -8 4 -12 0 -7 -14 12 -15 38 -2 31 7 -3 5 0 -3 8 -9 7 -14 21 -12
30 2 9 -6 26 -17 37 -12 12 -16 21 -11 21 6 0 10 5 10 11 0 5 -4 8 -8 5 -4 -2
-14 0 -22 5 -12 8 -12 12 -2 16 10 4 9 8 -5 19 -10 7 -22 13 -28 14 -5 0 -3
-5 5 -10 13 -8 12 -10 -2 -10 -10 0 -18 5 -18 12 0 6 -3 8 -7 5 -3 -4 -12 -2
-19 4 -7 5 -25 12 -41 15 -15 3 -36 7 -47 10 -14 5 -16 3 -10 -7 6 -11 5 -12
-7 -3 -8 6 -22 10 -32 9 -9 -2 -15 0 -12 4 2 4 -2 8 -9 8 -8 0 -12 -7 -9 -16
3 -11 2 -12 -4 -4 -5 7 -21 10 -36 8 -15 -3 -27 -1 -27 4 0 6 9 8 20 6 11 -2
22 0 24 4 11 17 -45 4 -57 -13 -10 -13 -19 -16 -28 -10 -22 13 -43 14 -51 1
-6 -9 -8 -8 -8 2 0 7 -6 11 -15 8 -8 -4 -17 -2 -20 3 -5 9 -30 8 -40 -2 -9 -9
-46 3 -40 12 11 17 -26 3 -39 -15 -11 -16 -17 -17 -29 -7 -11 9 -17 10 -22 2
-5 -7 -11 -8 -19 -1 -13 11 -34 10 -54 -3 -8 -5 -18 -3 -25 4 -9 10 -9 11 1 6
20 -12 33 3 22 25 -6 11 -15 17 -21 13 -5 -3 -16 -1 -23 5 -9 8 -13 7 -13 -3z
m-663 -48 c0 -4 -4 -8 -9 -8 -6 0 -12 4 -15 8 -3 5 1 9 9 9 8 0 15 -4 15 -9z
m480 2 c0 -5 -2 -10 -4 -10 -3 0 -8 5 -11 10 -3 6 -1 10 4 10 6 0 11 -4 11
-10z m480 -2 c0 -4 -4 -8 -9 -8 -6 0 -12 4 -15 8 -3 5 1 9 9 9 8 0 15 -4 15
-9z m-1231 -163 c12 2 33 0 46 -5 16 -6 27 -6 31 2 5 7 3 8 -6 3 -9 -5 -11 -4
-6 4 6 9 11 9 22 0 11 -9 14 -8 14 2 0 11 2 11 10 -1 9 -13 10 -13 10 0 0 9 3
11 8 4 4 -6 18 -10 32 -10 14 0 31 -3 38 -8 7 -4 12 -1 12 9 0 9 5 13 11 10 6
-4 8 -13 6 -19 -3 -7 1 -13 9 -13 9 0 13 7 9 21 -3 12 -2 15 1 8 5 -10 9 -10
22 0 13 11 14 11 7 -1 -6 -11 -4 -13 10 -7 15 5 16 4 5 -9 -19 -23 -3 -18 21
8 19 19 21 20 15 3 -7 -20 -7 -20 15 0 12 10 19 13 14 5 -6 -11 -4 -13 10 -7
15 5 16 4 5 -9 -19 -23 -3 -18 21 8 13 13 20 16 17 7 -4 -12 1 -16 22 -15 19
0 25 4 20 10 -6 7 -2 11 11 11 14 0 18 -5 13 -21 -6 -20 -6 -20 11 0 9 11 14
13 10 5 -4 -9 -1 -8 8 3 14 17 15 17 22 0 5 -10 7 -22 6 -26 -1 -5 3 -6 9 -2
8 5 7 12 -2 23 -11 13 -10 15 5 9 10 -4 17 -2 18 6 0 9 2 9 6 -1 2 -6 10 -9
15 -6 6 4 8 3 5 -2 -3 -5 3 -10 13 -10 12 0 16 4 10 11 -6 7 -2 11 11 11 14 0
17 -5 13 -19 -5 -17 -4 -17 15 2 17 17 25 19 46 11 34 -13 38 -13 28 3 -4 6 5
4 20 -6 25 -16 27 -16 27 -1 0 13 3 14 14 5 10 -8 16 -9 21 -1 3 6 11 8 16 4
5 -3 7 -9 5 -13 -3 -3 4 -7 14 -7 12 0 16 4 10 11 -6 7 -2 11 11 11 14 0 18
-5 14 -21 -5 -18 -5 -18 5 -3 6 10 17 15 27 11 11 -4 14 -3 9 5 -5 9 -1 9 18
2 19 -7 26 -6 26 3 0 8 4 7 10 -3 5 -8 10 -11 10 -6 0 5 6 3 14 -3 11 -9 15
-8 20 5 5 12 9 14 20 5 7 -6 16 -8 19 -4 4 3 13 0 22 -7 12 -10 15 -9 15 5 0
14 3 15 14 6 10 -8 16 -9 21 -1 3 6 11 8 16 4 5 -3 7 -9 5 -13 -3 -3 4 -7 14
-7 12 0 16 4 10 11 -6 7 -2 11 11 11 15 0 18 -5 13 -21 -6 -17 -4 -16 14 5 13
15 21 20 22 11 0 -11 3 -11 15 -1 14 12 19 7 16 -13 -1 -5 3 -6 9 -2 6 4 17 2
25 -5 10 -8 18 -6 33 10 13 14 22 18 27 11 3 -6 10 -9 15 -6 5 3 20 1 34 -5
17 -6 27 -6 32 2 5 7 3 8 -6 3 -9 -5 -11 -4 -6 4 6 9 11 9 21 1 8 -7 19 -9 24
-6 15 9 24 -13 12 -28 -6 -7 -7 -17 -3 -21 4 -5 0 -6 -9 -2 -12 4 -16 0 -15
-16 1 -13 -4 -21 -12 -19 -8 1 -11 -2 -7 -8 5 -8 11 -8 21 1 7 6 12 15 9 19
-3 4 2 11 11 14 8 3 13 10 9 15 -3 6 3 14 12 20 10 6 14 11 10 11 -5 0 -5 5
-2 10 5 8 11 7 20 0 8 -7 20 -8 26 -4 7 4 9 3 6 -3 -3 -5 0 -22 8 -37 8 -14
10 -24 5 -21 -6 4 -13 -1 -16 -9 -6 -16 -24 -12 -24 5 0 6 5 7 12 3 7 -5 8 -3
3 6 -6 9 -4 11 5 5 9 -5 11 -4 6 4 -4 6 -12 9 -17 6 -8 -6 -13 9 -10 29 1 5
-5 3 -14 -4 -8 -7 -13 -15 -10 -18 3 -3 -3 -15 -12 -26 -18 -21 -18 -21 3 -3
24 20 35 22 29 5 -3 -7 -1 -19 4 -27 8 -12 13 -12 24 -3 12 10 16 9 21 -3 3
-9 2 -14 -2 -11 -5 3 -9 -8 -9 -24 0 -16 3 -27 6 -25 4 2 6 -14 6 -35 0 -27
-3 -36 -11 -29 -13 10 -12 -26 1 -38 4 -5 4 -1 0 7 -8 13 -7 13 8 1 18 -15 23
-26 7 -16 -14 9 -13 -8 2 -23 7 -7 9 -12 5 -12 -4 0 -10 0 -14 0 -5 0 -8 3 -8
8 0 14 -16 32 -28 32 -7 0 -5 -5 5 -10 10 -6 15 -20 13 -35 -1 -14 2 -28 8
-32 6 -4 7 -1 2 8 -8 12 -6 12 8 0 19 -15 23 -26 6 -15 -7 4 -10 -2 -8 -17 2
-13 0 -30 -4 -36 -6 -9 -3 -11 10 -7 15 4 15 3 -2 -8 -22 -14 -32 -48 -15 -48
6 0 9 4 6 8 -2 4 -1 14 3 21 6 9 11 10 15 2 4 -6 3 -11 -1 -11 -5 0 -10 -14
-11 -31 -2 -22 1 -28 10 -23 9 6 9 3 -1 -9 -11 -14 -11 -20 -1 -32 8 -10 9
-20 3 -27 -5 -7 -9 -30 -8 -50 0 -21 -4 -37 -10 -37 -23 3 -32 -2 -32 -15 0
-8 5 -14 11 -13 6 1 11 -10 11 -25 0 -15 5 -31 9 -35 5 -5 6 -2 1 7 -8 13 -7
13 8 1 18 -15 23 -26 7 -16 -5 3 -10 2 -10 -4 0 -5 5 -13 10 -16 6 -4 8 -11 4
-16 -3 -5 -10 -7 -15 -3 -5 3 -7 9 -4 14 3 4 -3 14 -13 21 -15 12 -16 12 -6
-1 6 -8 10 -25 9 -38 -1 -13 3 -26 8 -29 6 -4 7 -1 2 8 -8 12 -6 12 8 0 18
-15 23 -26 7 -16 -5 3 -10 2 -10 -4 0 -5 5 -13 10 -16 6 -4 8 -11 4 -16 -3 -5
-10 -7 -15 -3 -5 3 -7 9 -4 13 2 5 -4 16 -14 25 -14 13 -18 14 -18 2 0 -8 5
-14 11 -13 6 1 11 -10 11 -25 0 -15 5 -31 9 -35 5 -5 6 -2 1 7 -8 13 -7 13 8
1 18 -15 23 -26 7 -16 -5 3 -10 2 -10 -4 0 -5 5 -13 10 -16 6 -4 8 -11 4 -16
-3 -5 -10 -7 -15 -3 -5 3 -7 9 -4 14 3 4 -3 14 -13 21 -15 12 -16 12 -6 -1 6
-8 10 -25 9 -38 -1 -13 3 -26 8 -29 6 -4 7 -1 2 8 -8 12 -6 12 8 0 19 -15 23
-26 6 -15 -7 4 -10 -2 -8 -17 2 -13 0 -30 -4 -36 -6 -9 -3 -11 10 -7 15 4 15
3 -2 -8 -22 -14 -32 -48 -15 -48 6 0 9 4 6 8 -2 4 -1 14 3 21 6 9 11 10 15 2
4 -6 3 -11 -1 -11 -5 0 -10 -14 -11 -31 -2 -22 1 -28 10 -23 9 6 9 3 -1 -9
-11 -14 -11 -20 -1 -32 8 -10 9 -20 3 -27 -5 -7 -9 -30 -8 -50 0 -21 -4 -37
-10 -37 -23 3 -32 -2 -32 -15 0 -8 5 -14 11 -13 6 1 11 -10 11 -25 0 -15 5
-31 9 -35 5 -4 6 -2 2 5 -10 16 -1 15 13 -2 9 -11 9 -16 0 -22 -8 -5 -9 -3 -4
6 5 9 4 11 -4 6 -9 -6 -9 -11 -1 -21 8 -9 6 -14 -5 -19 -17 -6 -21 -26 -4 -26
5 0 7 5 3 12 -4 7 -3 8 4 4 6 -4 8 -14 5 -23 -5 -12 -3 -14 8 -8 12 8 12 6 1
-8 -8 -9 -10 -22 -6 -29 5 -8 1 -8 -11 2 -17 15 -18 14 -1 -20 l17 -35 -25 27
c-21 24 -25 25 -23 9 1 -11 6 -19 11 -18 5 1 12 -6 14 -15 2 -13 -1 -16 -12
-12 -17 7 -18 5 -21 -38 -1 -15 1 -25 5 -23 5 3 10 -2 14 -10 6 -18 1 -19 -24
-5 -11 6 -17 17 -14 24 6 16 -20 16 -33 1 -4 -4 -3 -6 2 -2 6 3 16 -3 23 -14
10 -16 10 -21 -4 -26 -8 -3 -20 -15 -25 -27 l-10 -21 4 21 c3 12 0 28 -5 35
-7 12 -9 11 -7 -1 3 -30 -1 -39 -15 -34 -8 3 -17 0 -21 -5 -3 -6 -12 -8 -18
-4 -20 13 -49 14 -62 3 -8 -7 -15 -7 -19 -1 -7 10 -24 10 -43 -2 -6 -4 -15 -3
-18 3 -5 8 -11 7 -21 -1 -8 -6 -15 -9 -15 -5 -1 3 -2 10 -3 15 0 5 -5 13 -10
18 -5 5 -6 3 -2 -5 5 -8 -3 -12 -28 -12 -19 0 -38 -5 -41 -10 -4 -6 -11 -8
-16 -4 -5 3 -7 10 -3 15 3 5 11 6 17 2 7 -4 6 0 -2 10 -16 20 -22 22 -19 5 2
-9 -9 -13 -34 -12 -20 0 -35 -3 -32 -8 3 -4 10 -5 16 -2 7 4 8 2 4 -5 -4 -6
-13 -8 -19 -4 -18 11 -87 12 -93 1 -3 -5 -11 -4 -19 2 -9 8 -15 8 -20 0 -3 -6
-11 -8 -16 -4 -5 3 -7 9 -4 14 3 5 0 12 -6 16 -8 4 -9 3 -5 -4 5 -8 -4 -12
-28 -12 -19 0 -38 -5 -41 -10 -4 -6 -11 -8 -16 -4 -5 3 -7 10 -3 15 3 5 11 6
17 2 7 -4 6 0 -2 10 -16 20 -22 22 -19 5 2 -7 -5 -13 -14 -13 -9 0 -20 -4 -24
-8 -4 -4 -12 -7 -18 -7 -6 0 -4 5 4 10 8 5 10 10 4 10 -6 0 -17 -7 -24 -15 -9
-11 -16 -12 -25 -5 -9 8 -15 8 -20 0 -3 -5 -12 -10 -18 -10 -7 0 -4 5 6 11 9
5 17 15 17 22 0 8 -3 9 -8 1 -11 -16 -35 -22 -57 -14 -11 4 -26 3 -34 -4 -12
-9 -13 -8 -6 4 6 10 2 9 -12 -3 -14 -13 -23 -15 -28 -7 -5 8 -11 8 -19 1 -14
-12 -26 -5 -22 12 2 7 1 9 -1 5 -7 -12 -88 -9 -100 3 -8 8 -13 7 -18 -2 -5 -7
-4 -10 2 -6 6 4 13 1 16 -7 5 -11 0 -12 -26 -2 -18 6 -38 18 -45 26 -11 13
-11 12 -3 -7 15 -30 14 -38 -4 -23 -8 6 -19 9 -25 5 -6 -4 -18 1 -26 11 -13
17 -13 17 -8 1 5 -13 2 -16 -10 -11 -9 3 -24 0 -33 -7 -10 -8 -14 -9 -10 -2 4
6 3 14 -3 18 -5 3 -10 1 -10 -4 0 -6 -5 -11 -11 -11 -7 0 -5 10 5 25 9 14 14
25 11 25 -3 0 -15 -15 -26 -32 -16 -26 -20 -28 -16 -10 3 12 1 20 -4 16 -6 -3
-16 -1 -23 5 -9 8 -13 7 -13 -4 0 -8 4 -12 8 -9 4 2 11 -1 15 -8 4 -7 4 -10
-1 -6 -4 4 -14 3 -22 -3 -7 -6 -13 -10 -14 -8 0 2 -2 12 -4 22 -2 11 -7 22
-11 25 -4 4 -5 0 -1 -10 4 -10 -1 -18 -14 -21 -12 -3 -19 0 -19 9 0 16 -2 16
-24 8 -9 -3 -16 -14 -16 -23 0 -13 -2 -13 -9 -2 -5 7 -13 11 -19 7 -5 -3 -15
1 -22 9 -8 9 -8 15 -2 15 6 0 13 -5 15 -10 3 -6 4 -5 3 2 -4 20 -31 15 -28 -4
2 -10 -2 -18 -8 -18 -6 0 -8 5 -4 12 5 7 2 9 -9 5 -9 -3 -18 0 -21 9 -3 9 -10
13 -15 9 -6 -3 -8 3 -6 15 2 11 0 22 -5 25 -13 8 -5 38 11 43 12 3 12 2 0 -6
-9 -7 -10 -12 -2 -16 6 -4 11 -5 11 -2 0 2 3 11 6 20 4 10 1 16 -9 16 -9 0
-19 4 -22 10 -4 6 1 7 11 3 12 -5 15 -3 9 6 -4 8 -2 17 6 22 10 6 11 9 2 9 -7
0 -13 7 -13 15 0 8 -3 15 -7 15 -5 0 -8 15 -8 34 0 19 4 32 8 29 5 -3 6 -12 3
-20 -3 -8 -1 -11 5 -8 5 4 7 15 4 26 -4 11 -2 19 4 19 6 0 11 4 11 8 0 5 -7 9
-15 9 -8 0 -12 -4 -9 -9 3 -4 1 -8 -4 -8 -6 0 -9 11 -8 24 1 16 5 21 12 15 8
-6 10 3 7 31 -3 27 0 40 8 40 7 0 9 3 6 6 -4 4 -13 1 -22 -6 -8 -7 -15 -8 -15
-2 0 15 26 33 35 24 5 -4 5 -2 1 5 -4 7 -14 9 -24 6 -14 -5 -15 -3 -4 8 13 14
17 33 4 25 -4 -2 -8 4 -8 14 0 12 4 16 11 10 7 -6 10 6 10 38 0 29 4 47 12 47
6 0 14 2 17 6 3 3 -5 5 -19 5 -13 0 -21 -4 -19 -8 3 -4 1 -8 -4 -8 -6 0 -9 11
-8 24 1 18 4 22 14 14 9 -8 11 -7 6 6 -3 9 -1 16 5 16 6 0 11 5 11 12 0 9 -3
9 -12 0 -21 -21 -32 -13 -12 10 10 12 13 18 7 14 -19 -10 -16 2 7 34 l20 29
-27 -5 -28 -4 24 20 c13 11 18 20 12 20 -13 0 -10 22 4 32 6 5 5 8 -2 8 -7 0
-13 5 -13 11 0 5 6 7 13 3 6 -4 9 -4 5 1 -4 4 -2 15 5 23 10 13 9 14 -1 8 -7
-4 -15 -1 -18 8 -3 9 -9 14 -13 12 -4 -3 -7 4 -7 14 0 12 4 16 11 10 6 -5 10
5 10 30 0 24 -4 36 -12 33 -12 -5 -12 21 0 33 10 10 9 26 -1 20 -5 -3 -9 2 -9
10 0 8 6 13 12 10 7 -2 12 3 11 12 0 9 4 17 11 17 23 0 22 11 -2 11 -13 0 -21
-4 -19 -8 3 -4 1 -8 -4 -8 -6 0 -9 11 -8 24 1 18 4 22 14 14 9 -8 11 -7 6 6
-3 9 -1 16 5 16 6 0 11 5 11 12 0 9 -3 9 -12 0 -21 -21 -32 -13 -12 10 10 12
13 18 7 14 -15 -8 -18 10 -3 19 6 3 10 12 10 18 0 8 -3 8 -9 -1 -6 -10 -10 -9
-14 7 -3 12 0 24 5 28 7 4 8 1 3 -7 -5 -8 -4 -11 2 -7 5 3 8 20 5 36 -2 17 -7
29 -11 27 -4 -3 -7 4 -7 14 0 13 4 16 12 9 8 -7 10 1 7 28 -2 21 -8 40 -14 42
-6 1 -2 12 7 22 17 19 17 20 -2 13 -15 -6 -17 -4 -7 6 9 10 10 17 1 27 -8 10
-8 17 0 25 15 15 16 31 1 22 -8 -5 -8 -1 0 14 6 12 16 24 22 28 8 4 7 9 -2 15
-11 6 -11 11 -1 21 6 6 12 17 12 23 0 5 -5 2 -11 -7 -5 -10 -15 -18 -22 -18
-8 0 -8 3 1 9 8 4 14 12 14 16 0 4 -6 12 -14 16 -7 5 -8 9 -2 9 10 0 14 12 15
52 1 28 26 43 46 27 15 -12 16 -12 10 4 -4 11 -3 16 3 12 6 -3 10 0 10 7 0 10
2 10 8 1 4 -7 18 -11 31 -8z m1315 -7 c-3 -5 -12 -4 -20 3 -19 16 -18 18 6 12
11 -3 17 -9 14 -15z m-1424 -169 c0 -5 -4 -9 -8 -9 -5 0 -9 7 -9 15 0 8 4 12
9 9 4 -3 8 -9 8 -15z m1855 -299 c-3 -5 -1 -10 5 -10 6 0 8 -4 5 -10 -10 -16
-23 -11 -20 8 5 23 4 22 11 22 3 0 2 -4 -1 -10z m0 -80 c-3 -5 -1 -10 5 -10 6
0 8 -4 5 -10 -10 -16 -23 -11 -20 8 5 23 4 22 11 22 3 0 2 -4 -1 -10z m-170
-120 c-3 -5 -1 -11 5 -15 6 -4 8 -11 4 -16 -3 -5 -10 -7 -15 -3 -5 3 -7 9 -4
14 3 5 1 11 -5 15 -16 10 -12 25 5 19 8 -4 13 -10 10 -14z m170 -120 c-3 -5
-1 -10 5 -10 6 0 8 -4 5 -10 -10 -16 -23 -11 -20 8 5 23 4 22 11 22 3 0 2 -4
-1 -10z m-1850 -60 c3 -5 1 -10 -4 -10 -6 0 -11 5 -11 10 0 6 2 10 4 10 3 0 8
-4 11 -10z m1850 -20 c-3 -5 -1 -10 5 -10 6 0 8 -4 5 -10 -10 -16 -23 -11 -20
8 5 23 4 22 11 22 3 0 2 -4 -1 -10z m-1858 -35 c0 -8 -4 -15 -9 -15 -10 0 -11
14 -1 23 9 10 10 9 10 -8z m6 -80 c-3 -9 -8 -14 -10 -11 -3 3 -2 9 2 15 9 16
15 13 8 -4z m1852 -125 c-3 -5 -1 -10 5 -10 6 0 8 -4 5 -10 -10 -16 -23 -11
-20 8 5 23 4 22 11 22 3 0 2 -4 -1 -10z m-1855 -34 c0 -3 -4 -8 -10 -11 -5 -3
-10 -1 -10 4 0 6 5 11 10 11 6 0 10 -2 10 -4z m1855 -46 c-3 -5 -1 -10 5 -10
6 0 8 -4 5 -10 -10 -16 -23 -11 -20 8 5 23 4 22 11 22 3 0 2 -4 -1 -10z m-170
-120 c-3 -5 -1 -11 5 -15 6 -4 8 -11 4 -16 -3 -5 -10 -7 -15 -3 -5 3 -7 9 -4
14 3 5 1 11 -5 15 -16 10 -12 25 5 19 8 -4 13 -10 10 -14z m170 -120 c-3 -5
-1 -10 5 -10 6 0 8 -4 5 -10 -10 -16 -23 -11 -20 8 5 23 4 22 11 22 3 0 2 -4
-1 -10z m-1860 -80 c3 -5 1 -10 -4 -10 -6 0 -11 5 -11 10 0 6 2 10 4 10 3 0 8
-4 11 -10z m1699 -66 c4 -10 2 -13 -6 -8 -8 5 -9 2 -5 -10 4 -9 3 -14 -2 -11
-5 3 -12 1 -16 -5 -3 -5 2 -10 12 -11 10 0 13 -3 6 -5 -7 -3 -9 -13 -6 -22 3
-9 -4 -2 -16 16 -24 37 -26 48 -9 58 8 5 9 0 5 -17 -6 -23 -5 -23 8 -5 8 11
15 23 15 28 0 13 7 9 14 -8z m-34 -95 c0 -14 -20 -11 -21 4 0 10 -2 10 -6 0
-2 -7 -14 -13 -26 -13 -21 1 -21 1 2 14 25 14 51 11 51 -5z m-1513 -21 c-3 -8
-6 -5 -6 6 -1 11 2 17 5 13 3 -3 4 -12 1 -19z"/>
<path d="M1205 2112 c-10 -7 -18 -32 -10 -32 2 0 9 9 15 20 12 22 11 24 -5 12z"/>
<path d="M1345 2109 c-4 -6 -5 -12 -2 -15 2 -3 7 2 10 11 7 17 1 20 -8 4z"/>
<path d="M1665 2109 c-4 -6 -5 -12 -2 -15 2 -3 7 2 10 11 7 17 1 20 -8 4z"/>
<path d="M1785 2109 c-4 -6 -5 -12 -2 -15 2 -3 7 2 10 11 7 17 1 20 -8 4z"/>
<path d="M510 2096 c7 -7 13 -7 20 0 6 6 3 10 -10 10 -13 0 -16 -4 -10 -10z"/>
<path d="M546 2094 c-5 -14 -4 -15 9 -4 17 14 19 20 6 20 -5 0 -12 -7 -15 -16z"/>
<path d="M1266 2102 c-3 -5 1 -9 9 -9 8 0 12 4 9 9 -3 4 -7 8 -9 8 -2 0 -6 -4
-9 -8z"/>
<path d="M1475 2100 c6 -10 4 -12 -11 -6 -15 6 -17 5 -6 -5 9 -9 15 -10 23 -2
8 8 7 13 -2 18 -8 6 -10 4 -4 -5z"/>
<path d="M1593 2095 c0 -8 4 -12 9 -9 5 3 6 10 3 15 -9 13 -12 11 -12 -6z"/>
<path d="M1754 2085 c0 -28 8 -24 13 5 2 11 -1 20 -5 20 -4 0 -8 -11 -8 -25z"/>
<path d="M1910 2099 c0 -5 5 -7 10 -4 6 3 10 8 10 11 0 2 -4 4 -10 4 -5 0 -10
-5 -10 -11z"/>
<path d="M1990 2096 c7 -7 13 -7 20 0 6 6 3 10 -10 10 -13 0 -16 -4 -10 -10z"/>
<path d="M454 2088 c-5 -7 -9 -17 -11 -23 -1 -5 -4 -20 -7 -32 -3 -13 -1 -23
5 -23 10 0 10 2 13 42 1 26 16 53 16 30 0 -7 7 -12 15 -12 8 0 15 5 15 12 0 6
-3 8 -7 5 -3 -4 -12 -2 -19 4 -9 7 -15 6 -20 -3z"/>
<path d="M577 2093 c-10 -9 -9 -23 1 -23 5 0 9 7 9 15 0 17 -1 18 -10 8z"/>
<path d="M610 2090 c-9 -6 -10 -10 -3 -10 6 0 15 5 18 10 8 12 4 12 -15 0z"/>
<path d="M1050 2089 c0 -5 -4 -8 -9 -4 -5 3 -12 1 -15 -4 -4 -5 2 -8 11 -7 15
3 33 26 19 26 -3 0 -6 -5 -6 -11z"/>
<path d="M1566 2083 c-6 -14 -5 -15 5 -6 7 7 10 15 7 18 -3 3 -9 -2 -12 -12z"/>
<path d="M689 2077 c6 -8 7 -18 3 -22 -4 -5 -1 -5 6 -1 10 6 10 11 1 22 -6 8
-14 14 -16 14 -3 0 0 -6 6 -13z"/>
<path d="M796 2073 c-6 -14 -5 -15 5 -6 7 7 10 15 7 18 -3 3 -9 -2 -12 -12z"/>
<path d="M870 2079 c0 -5 5 -7 10 -4 6 3 10 8 10 11 0 2 -4 4 -10 4 -5 0 -10
-5 -10 -11z"/>
<path d="M1220 2085 c0 -2 6 -8 13 -14 10 -8 14 -7 14 2 0 8 -6 14 -14 14 -7
0 -13 -1 -13 -2z"/>
<path d="M1433 2075 c0 -8 4 -12 9 -9 5 3 6 10 3 15 -9 13 -12 11 -12 -6z"/>
<path d="M1870 2079 c0 -5 5 -7 10 -4 6 3 10 8 10 11 0 2 -4 4 -10 4 -5 0 -10
-5 -10 -11z"/>
<path d="M1966 2075 c4 -8 8 -15 10 -15 2 0 4 7 4 15 0 8 -4 15 -10 15 -5 0
-7 -7 -4 -15z"/>
<path d="M510 2076 c0 -2 7 -7 16 -10 8 -3 12 -2 9 4 -6 10 -25 14 -25 6z"/>
<path d="M550 2061 c0 -6 4 -13 10 -16 6 -3 7 1 4 9 -7 18 -14 21 -14 7z"/>
<path d="M470 2049 c0 -5 5 -7 10 -4 6 3 10 8 10 11 0 2 -4 4 -10 4 -5 0 -10
-5 -10 -11z"/>
<path d="M496 2045 c-4 -11 -2 -14 6 -9 7 5 9 2 5 -9 -4 -11 -2 -14 9 -10 12
4 12 8 2 22 -7 9 -13 17 -14 19 -1 2 -4 -4 -8 -13z"/>
<path d="M766 2042 c-3 -5 1 -9 9 -9 8 0 12 4 9 9 -3 4 -7 8 -9 8 -2 0 -6 -4
-9 -8z"/>
<path d="M1906 2038 c3 -5 10 -6 15 -3 13 9 11 12 -6 12 -8 0 -12 -4 -9 -9z"/>
<path d="M474 2022 c3 -5 0 -13 -6 -15 -9 -4 -10 -6 -1 -6 17 -1 25 16 12 25
-7 4 -9 3 -5 -4z"/>
<path d="M2039 2023 c-1 -5 -2 -15 -3 -23 0 -8 -8 -13 -16 -12 -8 2 -11 0 -7
-4 10 -10 37 -14 36 -6 -3 20 2 25 11 12 7 -10 10 -11 10 -2 0 7 -7 15 -15 18
-8 4 -12 10 -9 15 3 5 3 9 0 9 -3 0 -7 -3 -7 -7z"/>
<path d="M530 1981 c0 -6 4 -13 10 -16 6 -3 7 1 4 9 -7 18 -14 21 -14 7z"/>
<path d="M2070 1960 c0 -5 5 -10 11 -10 5 0 7 5 4 10 -3 6 -8 10 -11 10 -2 0
-4 -4 -4 -10z"/>
<path d="M2087 1927 c-3 -8 1 -14 8 -14 7 0 11 6 8 14 -3 7 -6 13 -8 13 -2 0
-5 -6 -8 -13z"/>
<path d="M496 1922 c-3 -5 1 -9 9 -9 8 0 12 4 9 9 -3 4 -7 8 -9 8 -2 0 -6 -4
-9 -8z"/>
<path d="M420 1860 c0 -6 7 -10 15 -10 8 0 15 2 15 4 0 2 -7 6 -15 10 -8 3
-15 1 -15 -4z"/>
<path d="M2073 1756 c0 -7 8 -18 17 -24 16 -9 16 -8 6 14 -12 26 -23 31 -23
10z"/>
<path d="M453 1726 c0 -15 22 -15 34 0 4 5 4 6 -1 2 -5 -4 -14 -3 -21 2 -8 7
-12 5 -12 -4z"/>
<path d="M470 1679 c0 -5 5 -7 10 -4 6 3 10 8 10 11 0 2 -4 4 -10 4 -5 0 -10
-5 -10 -11z"/>
<path d="M2072 1640 c2 -9 -3 -14 -12 -12 -8 2 -11 0 -7 -5 5 -4 13 -9 18 -9
5 -1 14 -2 20 -3 5 0 7 -6 3 -13 -5 -7 -3 -8 6 -3 10 6 10 10 -2 19 -8 6 -15
15 -16 19 0 5 -3 12 -7 15 -4 4 -5 0 -3 -8z"/>
<path d="M456 1607 c3 -10 9 -15 12 -12 3 3 0 11 -7 18 -10 9 -11 8 -5 -6z"/>
<path d="M1231 1591 c-1 -8 -7 -11 -17 -7 -8 3 -13 2 -10 -3 3 -4 -8 -8 -23
-9 -59 -1 -208 -125 -188 -156 1 -2 -6 -13 -16 -24 -11 -12 -16 -25 -13 -31 4
-5 2 -12 -2 -15 -5 -3 -8 -21 -7 -41 1 -19 -3 -35 -7 -35 -5 0 -6 -5 -2 -11 4
-6 8 -23 10 -38 5 -40 9 -55 19 -71 5 -8 10 -21 11 -29 3 -19 45 -65 112 -121
6 -6 12 -8 12 -4 0 4 8 0 18 -9 10 -10 22 -14 25 -10 4 3 7 2 7 -3 0 -11 5
-11 98 -17 35 -2 65 0 68 4 2 4 13 5 24 2 11 -3 20 0 20 6 0 6 3 10 8 9 21 -4
70 28 118 78 48 49 57 64 53 90 0 4 3 10 8 13 12 9 35 63 23 56 -5 -3 -10 -2
-10 4 0 5 4 12 8 15 15 9 -2 149 -18 154 -6 2 -10 12 -10 23 0 11 -9 27 -20
36 -11 10 -20 22 -20 28 -1 12 -73 66 -110 82 -70 30 -78 31 -90 20 -10 -9
-11 -9 -5 2 6 11 3 13 -13 9 -12 -4 -22 -1 -22 4 0 7 -5 6 -14 -1 -11 -9 -15
-9 -19 1 -4 10 -6 10 -6 -1z"/>
<path d="M2056 1582 c-3 -5 1 -9 9 -9 8 0 12 4 9 9 -3 4 -7 8 -9 8 -2 0 -6 -4
-9 -8z"/>
<path d="M2098 1573 c21 -8 13 -21 -10 -17 -21 4 -21 4 -3 -5 11 -5 24 -5 29
-1 10 10 -1 30 -17 29 -9 0 -9 -2 1 -6z"/>
<path d="M480 1560 c-9 -6 -10 -10 -3 -10 6 0 15 5 18 10 8 12 4 12 -15 0z"/>
<path d="M473 1513 c0 -9 4 -10 14 -2 7 6 13 12 13 14 0 1 -6 2 -13 2 -8 0
-14 -6 -14 -14z"/>
<path d="M2025 1520 c-3 -6 1 -7 9 -4 18 7 21 14 7 14 -6 0 -13 -4 -16 -10z"/>
<path d="M2099 1523 c0 -5 -2 -16 -4 -26 -2 -11 -1 -16 3 -13 8 8 14 46 7 46
-3 0 -5 -3 -6 -7z"/>
<path d="M2056 1498 c3 -5 10 -6 15 -3 13 9 11 12 -6 12 -8 0 -12 -4 -9 -9z"/>
<path d="M457 1453 c-10 -9 -9 -23 1 -23 5 0 9 7 9 15 0 17 -1 18 -10 8z"/>
<path d="M430 1400 c-8 -5 0 -7 18 -7 17 1 29 4 26 6 -8 9 -31 9 -44 1z"/>
<path d="M453 1327 c0 -8 6 -14 14 -14 9 0 10 4 2 14 -6 7 -12 13 -14 13 -1 0
-2 -6 -2 -13z"/>
<path d="M2026 1322 c-3 -5 1 -9 9 -9 8 0 12 4 9 9 -3 4 -7 8 -9 8 -2 0 -6 -4
-9 -8z"/>
<path d="M2026 1162 c-3 -5 1 -9 9 -9 8 0 12 4 9 9 -3 4 -7 8 -9 8 -2 0 -6 -4
-9 -8z"/>
<path d="M476 1127 c3 -10 9 -15 12 -12 3 3 0 11 -7 18 -10 9 -11 8 -5 -6z"/>
<path d="M2074 1121 c0 -10 8 -24 17 -29 16 -10 16 -9 2 19 -17 34 -19 35 -19
10z"/>
<path d="M480 1080 c-9 -6 -10 -10 -3 -10 6 0 15 5 18 10 8 12 4 12 -15 0z"/>
<path d="M473 1033 c0 -9 4 -10 14 -2 7 6 13 12 13 14 0 1 -6 2 -13 2 -8 0
-14 -6 -14 -14z"/>
<path d="M2072 1000 c2 -9 -3 -14 -12 -12 -8 2 -11 0 -7 -5 5 -4 13 -9 18 -9
5 -1 14 -2 20 -3 5 0 7 -6 3 -13 -5 -7 -3 -8 6 -3 10 6 10 10 -2 19 -8 6 -15
15 -16 19 0 5 -3 12 -7 15 -4 4 -5 0 -3 -8z"/>
<path d="M455 969 c-4 -6 -5 -12 -2 -15 2 -3 7 2 10 11 7 17 1 20 -8 4z"/>
<path d="M2056 942 c-3 -5 1 -9 9 -9 8 0 12 4 9 9 -3 4 -7 8 -9 8 -2 0 -6 -4
-9 -8z"/>
<path d="M453 927 c0 -7 9 -14 20 -14 11 -1 18 -1 16 0 -2 2 -11 8 -20 15 -12
9 -16 9 -16 -1z"/>
<path d="M2098 933 c21 -8 13 -21 -10 -17 -21 4 -21 4 -3 -5 11 -5 24 -5 29
-1 10 10 -1 30 -17 29 -9 0 -9 -2 1 -6z"/>
<path d="M466 882 c-3 -5 1 -9 9 -9 8 0 12 4 9 9 -3 4 -7 8 -9 8 -2 0 -6 -4
-9 -8z"/>
<path d="M2025 880 c-3 -6 1 -7 9 -4 18 7 21 14 7 14 -6 0 -13 -4 -16 -10z"/>
<path d="M2099 883 c0 -5 -2 -16 -4 -26 -2 -11 -1 -16 3 -13 8 8 14 46 7 46
-3 0 -5 -3 -6 -7z"/>
<path d="M2056 858 c3 -5 10 -6 15 -3 13 9 11 12 -6 12 -8 0 -12 -4 -9 -9z"/>
<path d="M453 765 c0 -8 4 -15 9 -15 4 0 8 4 8 9 0 6 -4 12 -8 15 -5 3 -9 -1
-9 -9z"/>
<path d="M2049 723 c-13 -16 -12 -17 4 -4 9 7 17 15 17 17 0 8 -8 3 -21 -13z"/>
<path d="M470 719 c0 -5 5 -7 10 -4 6 3 10 8 10 11 0 2 -4 4 -10 4 -5 0 -10
-5 -10 -11z"/>
<path d="M2075 720 c-3 -5 -1 -10 4 -10 6 0 11 5 11 10 0 6 -2 10 -4 10 -3 0
-8 -4 -11 -10z"/>
<path d="M454 680 c0 -13 4 -16 10 -10 7 7 7 13 0 20 -6 6 -10 3 -10 -10z"/>
<path d="M430 643 c0 -6 8 -17 18 -24 16 -13 16 -13 2 6 -8 11 -16 22 -17 24
-2 2 -3 0 -3 -6z"/>
<path d="M2079 633 c-12 -16 -12 -17 2 -6 9 7 20 9 24 5 5 -4 5 -1 1 6 -9 16
-11 15 -27 -5z"/>
<path d="M2036 618 c3 -5 10 -6 15 -3 13 9 11 12 -6 12 -8 0 -12 -4 -9 -9z"/>
<path d="M470 560 c-9 -6 -10 -10 -3 -10 6 0 15 5 18 10 8 12 4 12 -15 0z"/>
<path d="M2035 562 c3 -3 -1 -12 -8 -20 -11 -13 -9 -14 11 -1 26 16 28 26 7
26 -8 0 -13 -3 -10 -5z"/>
<path d="M467 524 c-15 -15 -32 -23 -39 -19 -7 4 -5 0 5 -8 20 -16 23 -32 5
-21 -7 4 -6 -1 4 -11 15 -16 18 -16 38 -2 12 9 29 13 36 10 8 -3 14 0 14 7 0
6 -4 9 -9 6 -5 -3 -12 1 -15 9 -4 12 -10 13 -25 5 -34 -17 -37 -11 -8 15 25
24 33 35 23 35 -2 0 -15 -12 -29 -26z m17 -49 c-29 -22 -40 -18 -14 5 13 11
26 18 28 15 3 -3 -3 -12 -14 -20z"/>
<path d="M513 529 c-2 -23 3 -25 10 -4 4 8 3 16 -1 19 -4 3 -9 -4 -9 -15z"/>
<path d="M537 515 c-4 -8 -3 -16 1 -19 4 -3 9 4 9 15 2 23 -3 25 -10 4z"/>
<path d="M1986 522 c-3 -5 1 -9 9 -9 8 0 15 4 15 9 0 4 -4 8 -9 8 -6 0 -12 -4
-15 -8z"/>
<path d="M715 500 c-3 -5 -1 -10 4 -10 6 0 11 5 11 10 0 6 -2 10 -4 10 -3 0
-8 -4 -11 -10z"/>
<path d="M810 499 c0 -5 5 -7 10 -4 6 3 10 8 10 11 0 2 -4 4 -10 4 -5 0 -10
-5 -10 -11z"/>
<path d="M930 499 c0 -5 5 -7 10 -4 6 3 10 8 10 11 0 2 -4 4 -10 4 -5 0 -10
-5 -10 -11z"/>
<path d="M615 490 c-4 -6 -12 -7 -18 -4 -7 4 -8 3 -4 -1 13 -15 34 -14 34 1 0
17 -4 18 -12 4z"/>
<path d="M877 493 c-10 -9 -9 -23 1 -23 5 0 9 7 9 15 0 17 -1 18 -10 8z"/>
<path d="M1966 485 c-3 -8 -1 -15 4 -15 6 0 10 7 10 15 0 8 -2 15 -4 15 -2 0
-6 -7 -10 -15z"/>
<path d="M565 479 c-4 -6 -5 -12 -2 -15 2 -3 7 2 10 11 7 17 1 20 -8 4z"/>
<path d="M670 481 c0 -6 4 -13 10 -16 6 -3 7 1 4 9 -7 18 -14 21 -14 7z"/>
<path d="M1113 483 c4 -3 3 -11 -3 -17 -6 -8 -2 -12 13 -13 12 0 17 1 10 4 -7
2 -9 11 -6 19 3 8 -1 14 -8 14 -7 0 -9 -3 -6 -7z"/>
<path d="M1316 482 c-3 -5 1 -9 9 -9 8 0 12 4 9 9 -3 4 -7 8 -9 8 -2 0 -6 -4
-9 -8z"/>
<path d="M1350 481 c0 -5 8 -15 18 -22 15 -12 16 -12 5 2 -7 9 -10 19 -6 22 3
4 1 7 -5 7 -7 0 -12 -4 -12 -9z"/>
<path d="M1394 478 c-4 -7 -4 -10 1 -6 4 4 15 2 24 -5 14 -11 14 -10 2 6 -16
20 -18 21 -27 5z"/>
<path d="M1513 483 c4 -3 1 -13 -6 -22 -11 -14 -10 -14 6 -2 20 15 22 31 5 31
-6 0 -8 -3 -5 -7z"/>
<path d="M1546 482 c-3 -5 1 -9 9 -9 8 0 12 4 9 9 -3 4 -7 8 -9 8 -2 0 -6 -4
-9 -8z"/>
<path d="M1636 482 c-3 -5 1 -9 9 -9 8 0 12 4 9 9 -3 4 -7 8 -9 8 -2 0 -6 -4
-9 -8z"/>
<path d="M1670 483 c0 -6 8 -17 18 -24 16 -13 16 -13 2 6 -8 11 -16 22 -17 24
-2 2 -3 0 -3 -6z"/>
<path d="M1713 476 c-3 -6 -3 -8 2 -4 4 4 13 3 20 -2 8 -7 12 -5 12 3 0 16
-25 18 -34 3z"/>
<path d="M1846 482 c-3 -5 1 -9 9 -9 8 0 12 4 9 9 -3 4 -7 8 -9 8 -2 0 -6 -4
-9 -8z"/>
<path d="M1915 470 c3 -5 8 -10 11 -10 2 0 4 5 4 10 0 6 -5 10 -11 10 -5 0 -7
-4 -4 -10z"/>
<path d="M2010 470 c0 -5 5 -10 11 -10 5 0 7 5 4 10 -3 6 -8 10 -11 10 -2 0
-4 -4 -4 -10z"/>
<path d="M537 463 c-4 -3 -7 -11 -7 -17 0 -6 5 -5 12 2 6 6 9 14 7 17 -3 3 -9
2 -12 -2z"/>
<path d="M946 458 c3 -5 10 -6 15 -3 13 9 11 12 -6 12 -8 0 -12 -4 -9 -9z"/>
<path d="M999 453 c-13 -17 -13 -17 6 -3 11 8 22 16 24 17 2 2 0 3 -6 3 -6 0
-17 -8 -24 -17z"/>
<path d="M1266 462 c-2 -4 4 -8 14 -8 10 0 16 4 14 8 -3 4 -9 8 -14 8 -5 0
-11 -4 -14 -8z"/>
<path d="M1586 462 c-2 -4 4 -8 14 -8 10 0 16 4 14 8 -3 4 -9 8 -14 8 -5 0
-11 -4 -14 -8z"/>
<path d="M1076 452 c-2 -4 -1 -14 4 -22 7 -11 9 -9 7 8 -1 24 -3 26 -11 14z"/>
<path d="M1150 457 c0 -2 6 -10 14 -16 11 -9 16 -9 22 1 4 7 4 10 -1 6 -4 -4
-14 -3 -22 3 -7 6 -13 9 -13 6z"/>
<path d="M1236 452 c-2 -4 -1 -14 4 -22 7 -11 9 -9 7 8 -1 24 -3 26 -11 14z"/>
<path d="M1476 452 c-2 -4 -1 -14 4 -22 7 -11 9 -9 7 8 -1 24 -3 26 -11 14z"/>
<path d="M1796 452 c-2 -4 -1 -14 4 -22 7 -11 9 -9 7 8 -1 24 -3 26 -11 14z"/>
<path d="M1828 453 c6 -2 9 -10 5 -16 -3 -7 -3 -9 2 -5 4 4 14 3 21 -3 16 -13
26 2 13 21 -8 13 -9 13 -9 1 0 -12 -3 -12 -12 -3 -7 7 -17 12 -22 11 -6 0 -5
-3 2 -6z"/>
<path d="M1046 433 c-6 -14 -5 -15 5 -6 7 7 10 15 7 18 -3 3 -9 -2 -12 -12z"/>
<path d="M1446 433 c-6 -14 -5 -15 5 -6 7 7 10 15 7 18 -3 3 -9 -2 -12 -12z"/>
<path d="M1766 433 c-6 -14 -5 -15 5 -6 7 7 10 15 7 18 -3 3 -9 -2 -12 -12z"/>
<path d="M1930 443 c0 -19 14 -22 35 -7 16 12 17 14 2 14 -9 0 -17 -6 -17 -12
0 -9 -4 -8 -10 2 -6 9 -10 10 -10 3z"/>
<path d="M1713 2327 c0 -16 34 -20 43 -5 4 7 2 8 -5 4 -6 -4 -18 -3 -25 3 -9
8 -13 7 -13 -2z"/>
<path d="M2070 2336 c0 -2 8 -10 18 -17 15 -13 16 -12 3 4 -13 16 -21 21 -21
13z"/>
<path d="M860 2315 c0 -8 -6 -12 -14 -9 -8 3 -16 1 -20 -4 -3 -5 5 -8 17 -7
18 1 40 35 23 35 -3 0 -6 -7 -6 -15z"/>
<path d="M910 2326 c0 -2 7 -7 16 -10 8 -3 12 -2 9 4 -6 10 -25 14 -25 6z"/>
<path d="M1138 2312 c-3 -11 0 -19 7 -19 7 0 10 8 7 19 -2 10 -6 18 -7 18 -1
0 -5 -8 -7 -18z"/>
<path d="M1340 2315 c0 -8 -6 -12 -14 -9 -8 3 -16 1 -20 -4 -3 -5 5 -8 17 -7
18 1 40 35 23 35 -3 0 -6 -7 -6 -15z"/>
<path d="M1390 2326 c0 -2 7 -7 16 -10 8 -3 12 -2 9 4 -6 10 -25 14 -25 6z"/>
<path d="M1820 2315 c0 -8 -6 -12 -14 -9 -8 3 -16 1 -20 -4 -3 -5 5 -8 17 -7
18 1 40 35 23 35 -3 0 -6 -7 -6 -15z"/>
<path d="M1870 2326 c0 -2 7 -7 16 -10 8 -3 12 -2 9 4 -6 10 -25 14 -25 6z"/>
<path d="M1980 2320 c0 -5 5 -10 11 -10 5 0 7 5 4 10 -3 6 -8 10 -11 10 -2 0
-4 -4 -4 -10z"/>
<path d="M2013 2314 c1 -21 19 -26 34 -9 4 4 3 5 -4 1 -6 -3 -16 2 -22 11 -9
16 -10 16 -8 -3z"/>
<path d="M2150 2319 c0 -5 5 -7 10 -4 6 3 10 8 10 11 0 2 -4 4 -10 4 -5 0 -10
-5 -10 -11z"/>
<path d="M618 2308 c-4 -9 -4 -18 -1 -21 7 -8 33 3 33 15 0 5 -4 7 -9 4 -5 -4
-11 -1 -13 6 -3 8 -6 6 -10 -4z"/>
<path d="M664 2298 c3 -15 26 -23 26 -8 0 6 -4 9 -9 6 -5 -4 -12 -1 -14 4 -3
6 -4 5 -3 -2z"/>
<path d="M904 2298 c3 -15 26 -23 26 -8 0 6 -4 9 -9 6 -5 -4 -12 -1 -14 4 -3
6 -4 5 -3 -2z"/>
<path d="M1384 2298 c3 -15 26 -23 26 -8 0 6 -4 9 -9 6 -5 -4 -12 -1 -14 4 -3
6 -4 5 -3 -2z"/>
<path d="M1590 2294 c0 -8 5 -12 10 -9 6 3 10 10 10 16 0 5 -4 9 -10 9 -5 0
-10 -7 -10 -16z"/>
<path d="M1624 2298 c3 -15 26 -23 26 -8 0 6 -4 9 -9 6 -5 -4 -12 -1 -14 4 -3
6 -4 5 -3 -2z"/>
<path d="M1864 2298 c3 -15 26 -23 26 -8 0 6 -4 9 -9 6 -5 -4 -12 -1 -14 4 -3
6 -4 5 -3 -2z"/>
<path d="M2066 2302 c-3 -5 1 -9 9 -9 8 0 12 4 9 9 -3 4 -7 8 -9 8 -2 0 -6 -4
-9 -8z"/>
<path d="M2130 2286 c0 -2 8 -10 18 -17 15 -13 16 -12 3 4 -13 16 -21 21 -21
13z"/>
<path d="M2280 2215 c-7 -9 -11 -17 -9 -20 3 -2 10 5 17 15 14 24 10 26 -8 5z"/>
<path d="M2295 2140 c3 -5 8 -10 11 -10 2 0 4 5 4 10 0 6 -5 10 -11 10 -5 0
-7 -4 -4 -10z"/>
<path d="M2296 2107 c3 -10 9 -15 12 -12 3 3 0 11 -7 18 -10 9 -11 8 -5 -6z"/>
<path d="M224 2070 c0 -13 4 -16 10 -10 7 7 7 13 0 20 -6 6 -10 3 -10 -10z"/>
<path d="M228 2023 c7 -3 16 -2 19 1 4 3 -2 6 -13 5 -11 0 -14 -3 -6 -6z"/>
<path d="M2309 1917 c6 -8 7 -18 3 -22 -4 -5 -1 -5 6 -1 10 6 10 11 1 22 -6 8
-14 14 -16 14 -3 0 0 -6 6 -13z"/>
<path d="M218 1888 c5 -5 16 -8 23 -6 8 3 3 7 -10 11 -17 4 -21 3 -13 -5z"/>
<path d="M175 1860 c3 -5 8 -10 11 -10 2 0 4 5 4 10 0 6 -5 10 -11 10 -5 0 -7
-4 -4 -10z"/>
<path d="M176 1813 c-6 -14 -5 -15 5 -6 7 7 10 15 7 18 -3 3 -9 -2 -12 -12z"/>
<path d="M215 1790 c-3 -6 1 -7 9 -4 18 7 21 14 7 14 -6 0 -13 -4 -16 -10z"/>
<path d="M2306 1765 c-11 -8 -15 -15 -9 -15 6 0 16 7 23 15 16 19 11 19 -14 0z"/>
<path d="M210 1699 c0 -5 5 -7 10 -4 6 3 10 8 10 11 0 2 -4 4 -10 4 -5 0 -10
-5 -10 -11z"/>
<path d="M2310 1700 c0 -4 7 -7 15 -6 23 3 26 12 5 13 -11 1 -20 -2 -20 -7z"/>
<path d="M176 1653 c-6 -14 -5 -15 5 -6 7 7 10 15 7 18 -3 3 -9 -2 -12 -12z"/>
<path d="M215 1630 c-3 -6 1 -7 9 -4 18 7 21 14 7 14 -6 0 -13 -4 -16 -10z"/>
<path d="M2313 1591 c0 -11 5 -18 9 -15 4 3 5 11 1 19 -7 21 -12 19 -10 -4z"/>
<path d="M2310 1519 c0 -5 5 -7 10 -4 6 3 10 8 10 11 0 2 -4 4 -10 4 -5 0 -10
-5 -10 -11z"/>
<path d="M155 1480 c3 -5 8 -10 11 -10 2 0 4 5 4 10 0 6 -5 10 -11 10 -5 0 -7
-4 -4 -10z"/>
<path d="M196 1482 c-3 -4 4 -9 15 -9 23 -2 25 3 4 10 -8 4 -16 3 -19 -1z"/>
<path d="M2306 1445 c-11 -8 -15 -15 -9 -15 6 0 16 7 23 15 16 19 11 19 -14 0z"/>
<path d="M205 1440 c-3 -5 -1 -10 4 -10 6 0 11 5 11 10 0 6 -2 10 -4 10 -3 0
-8 -4 -11 -10z"/>
<path d="M234 1386 c3 -16 8 -31 11 -35 3 -3 4 7 1 23 -3 16 -8 31 -11 35 -3
3 -4 -7 -1 -23z"/>
<path d="M2310 1380 c0 -4 7 -7 15 -6 23 3 26 12 5 13 -11 1 -20 -2 -20 -7z"/>
<path d="M176 1367 c3 -10 9 -15 12 -12 3 3 0 11 -7 18 -10 9 -11 8 -5 -6z"/>
<path d="M235 1320 c-3 -5 -3 -10 2 -10 4 0 1 -5 -7 -11 -12 -8 -12 -10 -1 -7
8 2 15 12 17 21 3 19 -2 22 -11 7z"/>
<path d="M2313 1271 c0 -11 5 -18 9 -15 4 3 5 11 1 19 -7 21 -12 19 -10 -4z"/>
<path d="M194 1248 l-19 -23 23 19 c12 11 22 21 22 23 0 8 -8 2 -26 -19z"/>
<path d="M2310 1199 c0 -5 5 -7 10 -4 6 3 10 8 10 11 0 2 -4 4 -10 4 -5 0 -10
-5 -10 -11z"/>
<path d="M176 1135 c-9 -26 -7 -32 5 -12 6 10 9 21 6 23 -2 3 -7 -2 -11 -11z"/>
<path d="M230 1141 c0 -6 4 -12 8 -15 5 -3 9 1 9 9 0 8 -4 15 -9 15 -4 0 -8
-4 -8 -9z"/>
<path d="M2306 1125 c-11 -8 -15 -15 -9 -15 6 0 16 7 23 15 16 19 11 19 -14 0z"/>
<path d="M2310 1060 c0 -4 7 -7 15 -6 23 3 26 12 5 13 -11 1 -20 -2 -20 -7z"/>
<path d="M155 1000 c3 -5 8 -10 11 -10 2 0 4 5 4 10 0 6 -5 10 -11 10 -5 0 -7
-4 -4 -10z"/>
<path d="M196 1002 c-3 -4 4 -9 15 -9 23 -2 25 3 4 10 -8 4 -16 3 -19 -1z"/>
<path d="M234 971 c4 -6 3 -18 -3 -25 -8 -9 -7 -13 2 -13 16 0 20 34 5 43 -7
4 -8 2 -4 -5z"/>
<path d="M2313 951 c0 -11 5 -18 9 -15 4 3 5 11 1 19 -7 21 -12 19 -10 -4z"/>
<path d="M2310 879 c0 -5 5 -7 10 -4 6 3 10 8 10 11 0 2 -4 4 -10 4 -5 0 -10
-5 -10 -11z"/>
<path d="M176 853 c-6 -14 -5 -15 5 -6 7 7 10 15 7 18 -3 3 -9 -2 -12 -12z"/>
<path d="M215 830 c-3 -6 1 -7 9 -4 18 7 21 14 7 14 -6 0 -13 -4 -16 -10z"/>
<path d="M2306 805 c-11 -8 -15 -15 -9 -15 6 0 16 7 23 15 16 19 11 19 -14 0z"/>
<path d="M210 739 c0 -5 5 -7 10 -4 6 3 10 8 10 11 0 2 -4 4 -10 4 -5 0 -10
-5 -10 -11z"/>
<path d="M2310 740 c0 -4 7 -7 15 -6 23 3 26 12 5 13 -11 1 -20 -2 -20 -7z"/>
<path d="M176 693 c-6 -14 -5 -15 5 -6 7 7 10 15 7 18 -3 3 -9 -2 -12 -12z"/>
<path d="M215 670 c-3 -6 1 -7 9 -4 18 7 21 14 7 14 -6 0 -13 -4 -16 -10z"/>
<path d="M2310 640 c0 -5 5 -10 11 -10 5 0 7 5 4 10 -3 6 -8 10 -11 10 -2 0
-4 -4 -4 -10z"/>
<path d="M2316 607 c3 -10 9 -15 12 -12 3 3 0 11 -7 18 -10 9 -11 8 -5 -6z"/>
<path d="M235 591 c-3 -5 -2 -12 3 -15 5 -3 9 1 9 9 0 17 -3 19 -12 6z"/>
<path d="M190 578 c0 -4 4 -8 9 -8 6 0 12 4 15 8 3 5 -1 9 -9 9 -8 0 -15 -4
-15 -9z"/>
<path d="M216 555 c-9 -26 -7 -32 5 -12 6 10 9 21 6 23 -2 3 -7 -2 -11 -11z"/>
<path d="M2313 523 c4 -3 1 -13 -6 -22 -11 -14 -10 -14 5 -2 16 12 16 31 1 31
-4 0 -3 -3 0 -7z"/>
<path d="M225 479 c-4 -6 -5 -12 -2 -15 2 -3 7 2 10 11 7 17 1 20 -8 4z"/>
<path d="M2309 457 c6 -8 7 -18 3 -22 -4 -5 -1 -5 6 -1 10 6 10 11 1 22 -6 8
-14 14 -16 14 -3 0 0 -6 6 -13z"/>
<path d="M255 340 c3 -5 8 -10 11 -10 2 0 4 5 4 10 0 6 -5 10 -11 10 -5 0 -7
-4 -4 -10z"/>
<path d="M2240 280 c-9 -6 -10 -10 -3 -10 6 0 15 5 18 10 8 12 4 12 -15 0z"/>
<path d="M2170 259 c0 -5 5 -7 10 -4 6 3 10 8 10 11 0 2 -4 4 -10 4 -5 0 -10
-5 -10 -11z"/>
<path d="M765 249 c-4 -6 -5 -12 -2 -15 2 -3 7 2 10 11 7 17 1 20 -8 4z"/>
<path d="M796 251 c-3 -5 1 -11 9 -14 9 -4 12 -1 8 9 -6 16 -10 17 -17 5z"/>
<path d="M1276 251 c-3 -5 1 -11 9 -14 9 -4 12 -1 8 9 -6 16 -10 17 -17 5z"/>
<path d="M1480 245 c-7 -9 -8 -15 -2 -15 5 0 12 7 16 15 3 8 4 15 2 15 -2 0
-9 -7 -16 -15z"/>
<path d="M1510 245 c-11 -13 -10 -14 4 -9 9 3 16 10 16 15 0 13 -6 11 -20 -6z"/>
<path d="M1640 253 c0 -6 8 -17 18 -24 16 -13 16 -13 2 6 -8 11 -16 22 -17 24
-2 2 -3 0 -3 -6z"/>
<path d="M1725 249 c-4 -6 -5 -12 -2 -15 2 -3 7 2 10 11 7 17 1 20 -8 4z"/>
<path d="M1756 251 c-3 -5 1 -11 9 -14 9 -4 12 -1 8 9 -6 16 -10 17 -17 5z"/>
<path d="M1875 250 c3 -5 8 -10 11 -10 2 0 4 5 4 10 0 6 -5 10 -11 10 -5 0 -7
-4 -4 -10z"/>
<path d="M486 242 c-3 -5 1 -9 9 -9 8 0 12 4 9 9 -3 4 -7 8 -9 8 -2 0 -6 -4
-9 -8z"/>
<path d="M714 242 c4 -3 14 -7 22 -8 9 -1 13 0 10 4 -4 3 -14 7 -22 8 -9 1
-13 0 -10 -4z"/>
<path d="M946 242 c-3 -5 1 -9 9 -9 8 0 12 4 9 9 -3 4 -7 8 -9 8 -2 0 -6 -4
-9 -8z"/>
<path d="M991 228 c-13 -21 -13 -22 2 -10 9 8 22 10 29 6 10 -6 9 -3 -1 9 -17
21 -13 21 -30 -5z"/>
<path d="M1151 228 c-13 -21 -13 -22 2 -10 9 8 22 10 29 6 10 -6 9 -3 -1 9
-17 21 -13 21 -30 -5z"/>
<path d="M1674 242 c4 -3 14 -7 22 -8 9 -1 13 0 10 4 -4 3 -14 7 -22 8 -9 1
-13 0 -10 -4z"/>
<path d="M1906 242 c-3 -5 1 -9 9 -9 8 0 12 4 9 9 -3 4 -7 8 -9 8 -2 0 -6 -4
-9 -8z"/>
<path d="M789 217 c6 -8 7 -18 3 -22 -4 -5 -1 -5 6 -1 10 6 10 11 1 22 -6 8
-14 14 -16 14 -3 0 0 -6 6 -13z"/>
<path d="M1060 220 c-9 -6 -10 -10 -3 -10 6 0 15 5 18 10 8 12 4 12 -15 0z"/>
<path d="M1560 220 c-9 -6 -10 -10 -3 -10 6 0 15 5 18 10 8 12 4 12 -15 0z"/>
<path d="M1749 217 c6 -8 7 -18 3 -22 -4 -5 -1 -5 6 -1 10 6 10 11 1 22 -6 8
-14 14 -16 14 -3 0 0 -6 6 -13z"/>
<path d="M533 205 c0 -8 4 -12 9 -9 5 3 6 10 3 15 -9 13 -12 11 -12 -6z"/>
<path d="M686 198 c3 -5 10 -6 15 -3 13 9 11 12 -6 12 -8 0 -12 -4 -9 -9z"/>
<path d="M1086 198 c3 -5 10 -6 15 -3 13 9 11 12 -6 12 -8 0 -12 -4 -9 -9z"/>
<path d="M1646 198 c3 -5 10 -6 15 -3 13 9 11 12 -6 12 -8 0 -12 -4 -9 -9z"/>
</g>
</svg>
